<?xml version="1.0" encoding="utf-8"?>
<!-- Generator: Adobe Illustrator 21.1.0, SVG Export Plug-In . SVG Version: 6.00 Build 0)  -->
<svg version="1.1" id="Слой_1" xmlns="http://www.w3.org/2000/svg" xmlns:xlink="http://www.w3.org/1999/xlink" x="0px" y="0px"
	 viewBox="0 0 150 150" style="enable-background:new 0 0 150 150;" xml:space="preserve">
<style type="text/css">
	.st0{fill:#FFFFFF;}
</style>
<path class="st0" d="M84.7,75l57.3-57.3c2.7-2.7,2.7-7.1,0-9.7s-7.1-2.7-9.7,0L75,65.3L17.7,7.9c-2.7-2.7-7.1-2.7-9.7,0
	s-2.7,7.1,0,9.7L65.3,75L7.9,132.3c-2.7,2.7-2.7,7.1,0,9.7s7.1,2.7,9.7,0L75,84.7l57.3,57.3c2.7,2.7,7.1,2.7,9.7,0s2.7-7.1,0-9.7
	L84.7,75z"/>
</svg>
