<?xml version="1.0" encoding="utf-8"?>
<!-- Generator: Adobe Illustrator 21.1.0, SVG Export Plug-In . SVG Version: 6.00 Build 0)  -->
<svg version="1.1" id="Слой_1" xmlns="http://www.w3.org/2000/svg" xmlns:xlink="http://www.w3.org/1999/xlink" x="0px" y="0px"
	 viewBox="0 0 150 150" style="enable-background:new 0 0 150 150;" xml:space="preserve">
<style type="text/css">
	.st0{fill:#DFC800;}
</style>
<path class="st0" d="M75.1,24.2h45.4c2.5,0,4.6,2.1,4.6,4.6l0,0c0,2.5-2.1,4.6-4.6,4.6H75.1c-2.5,0-4.6-2.1-4.6-4.6l0,0
	C70.4,26.3,72.5,24.2,75.1,24.2L75.1,24.2z M26.1,49.2H76c6.1,0,11.6,2.5,15.6,6.5s6.5,9.5,6.5,15.6v51.6c0,6.1-2.5,11.6-6.5,15.6
	S82.1,145,76,145H26.1c-6.1,0-11.6-2.5-15.6-6.5S4,129,4,122.9V71.3c0-6.1,2.5-11.6,6.5-15.6C14.5,51.6,20,49.2,26.1,49.2L26.1,49.2
	z M28.4,107.2c-2.5,0-4.6,2.1-4.6,4.6l0,0c0,2.5,2.1,4.6,4.6,4.6h34.3c2.5,0,4.6-2.1,4.6-4.6l0,0c0-2.5-2.1-4.6-4.6-4.6H28.4
	L28.4,107.2z M28.4,88.6c-2.5,0-4.6,2.1-4.6,4.6l0,0c0,2.5,2.1,4.6,4.6,4.6h45.4c2.5,0,4.6-2.1,4.6-4.6l0,0c0-2.5-2.1-4.6-4.6-4.6
	H28.4L28.4,88.6z M28.4,69.2c-2.5,0-4.6,2.1-4.6,4.6l0,0c0,2.5,2.1,4.6,4.6,4.6h45.4c2.5,0,4.6-2.1,4.6-4.6l0,0
	c0-2.5-2.1-4.6-4.6-4.6H28.4L28.4,69.2z M76,59.2H26.1c-3.3,0-6.3,1.4-8.5,3.6C15.4,65,14,68,14,71.3v51.6c0,3.3,1.4,6.3,3.6,8.5
	s5.2,3.6,8.5,3.6H76c3.3,0,6.3-1.4,8.5-3.6c2.2-2.2,3.6-5.2,3.6-8.5V71.3c0-3.3-1.4-6.3-3.6-8.5C82.3,60.5,79.3,59.2,76,59.2
	L76,59.2z M87,43.6c0,0.6,0,0.6,0,1.7c3.5,1.4,6.3,3.5,8.8,6.1c0.5,0.5,0.9,0.9,1.3,1.4h23.3c2.5,0,4.6-2.1,4.6-4.6l0,0
	c0-2.5-2.1-4.6-4.6-4.6L87,43.6L87,43.6z M102.6,62.2h4c2.5,0,4.6,2.1,4.6,4.6l0,0c0,2.5-2.1,4.6-4.6,4.6h-2.5v-0.2
	C104.1,68.1,103.6,65,102.6,62.2L102.6,62.2z M72.8,4c-6.1,0-11.6,2.5-15.6,6.5s-6.5,9.5-6.5,15.6v17h10v-17c0-3.3,1.4-6.3,3.6-8.5
	s5.2-3.6,8.5-3.6h49.9c3.3,0,6.3,1.4,8.5,3.6c2.2,2.2,3.6,5.2,3.6,8.5v51.6c0,3.3-1.4,6.3-3.6,8.5c-2.2,2.2-5.2,3.6-8.5,3.6h-18.6
	v10h18.6c6.1,0,11.6-2.5,15.6-6.5s6.5-9.5,6.5-15.6V26.1c0-6.1-2.5-11.6-6.5-15.6S128.8,4,122.7,4H72.8L72.8,4z M82.1,99.8
	L82.1,99.8L82.1,99.8L82.1,99.8z"/>
</svg>
