<?xml version="1.0" encoding="utf-8"?>
<!-- Generator: Adobe Illustrator 21.1.0, SVG Export Plug-In . SVG Version: 6.00 Build 0)  -->
<svg version="1.1" id="Слой_1" xmlns="http://www.w3.org/2000/svg" xmlns:xlink="http://www.w3.org/1999/xlink" x="0px" y="0px"
	 viewBox="0 0 300 300" style="enable-background:new 0 0 300 300;" xml:space="preserve">
<style type="text/css">
	.st0{fill:#FFFFFF;}
</style>
<rect width="300" height="300"/>
<title>logo</title>
<g>
	<path class="st0" d="M161.6,85.3v57.8h-34.5v35.5c0,5.4,1.4,9.5,4.1,12.2c2.7,2.7,6.4,4.1,11.8,4.4c5.1,0.3,11.5,0.3,18.9,0v54.7
		c-34.1,4.7-58.5,2-73.3-8.8c-14.5-10.5-22-30.4-22-59.1v-38.9h-23V85.3h23v-28l60.8-17.9v46C127.5,85.3,161.6,85.3,161.6,85.3z"/>
</g>
<rect x="208.1" y="25.6" class="st0" width="18.7" height="245"/>
<rect x="178.6" y="25.6" class="st0" width="77.8" height="18.7"/>
<rect x="178.6" y="253.8" class="st0" width="77.8" height="18.7"/>
</svg>
