<?xml version="1.0" encoding="utf-8"?>
<!-- Generator: Adobe Illustrator 21.1.0, SVG Export Plug-In . SVG Version: 6.00 Build 0)  -->
<svg version="1.1" id="Layer_1" xmlns="http://www.w3.org/2000/svg" xmlns:xlink="http://www.w3.org/1999/xlink" x="0px" y="0px"
	 viewBox="0 0 512 512" style="enable-background:new 0 0 512 512;" xml:space="preserve">
<style type="text/css">
	.st0{fill:#FFFFFF;}
</style>
<g>
	<g>
		<circle class="st0" cx="353.4" cy="110.9" r="13.9"/>
	</g>
</g>
<g>
	<g>
		<path class="st0" d="M467.3,84.9l-2.6-11.4l-25.5-0.7l-0.7-25.5l-11.4-2.6C399.3,38.4,360,40.4,322,50
			c-28.3,7.2-67.1,21.6-102.7,50.2c-34.8,0.9-86.5,24.3-114,51.9c-7.4,7.4-11.1,16.9-10.5,27.4c0.7,13.8,8.7,29.2,23.8,45.9
			c3,3.3,5.9,6.3,8.6,8.9c-9.1,28.5-12.4,55.5-11.4,78.9c-41-3-86.3,11.9-102.3,30c-7.1,8-9.2,17.5-5.9,26
			c6.2,16.1,23.3,19.2,39.9,22.1c17,3.1,36.3,6.5,51.4,21.7c15.2,15.2,18.6,34.4,21.7,51.4c3,16.6,6,33.7,22.1,39.9
			c2.6,1,5.4,1.5,8.1,1.5c6.1,0,12.4-2.5,17.9-7.4c18.2-16,33-61.4,30-102.3c2.6,0.1,5.3,0.2,8,0.2c21.5,0,45.7-3.4,70.9-11.6
			c2.7,2.8,6,6,9.4,9c16.7,15.1,32.3,23.1,45.9,23.8c0.7,0,1.4,0.1,2.1,0.1c9.7,0,18.4-3.6,25.3-10.5
			c27.9-27.9,51.4-80.3,51.9-115.1c28.3-35.3,42.5-73.9,49.8-102.1C471.7,152,473.7,112.7,467.3,84.9z M125.1,177.9
			c-0.1-2,0.4-3.1,1.7-4.4c12.7-12.7,32.6-24.8,52.5-32.9c-17,20.6-30,41.8-39.8,62.7C131.7,194.3,125.4,184.7,125.1,177.9z
			 M338.9,385.8c-1.3,1.3-2.5,1.8-4.4,1.7c-6.9-0.4-16.6-6.9-25.9-14.8c21.2-9.9,42.7-23.2,63.6-40.5
			C364.2,352.3,352,372.7,338.9,385.8z M432.7,182.5c-2.8,11-6.8,23.8-12.6,37.3c-32.5-4-62.7-18.7-85.9-41.9
			c-16.5-16.5-28.6-36-35.7-58l-28.8,9.5c8.7,26.6,23.2,50.1,43.2,70c25.6,25.6,57.9,42.5,93.1,49c-8.4,14.2-18.9,28.4-32.1,41.6
			c-29.4,29.4-64,51.6-100.1,64.4c-31.2,11-63.3,14.6-90.4,10.2l-22.7-3.6l5.5,22.2c4.2,16.7,3.4,38.5-2,59.6
			c-3.5,13.6-8,23-11.4,28.3c-0.8-3.5-1.7-8-2.3-11.6c-3.4-19.3-8.2-45.7-30-67.5c-21.9-21.9-48.3-26.7-67.5-30.1
			c-3.6-0.7-8.1-1.5-11.6-2.3c5.4-3.4,14.7-7.9,28.3-11.4c21.1-5.5,42.8-6.2,59.6-2l22.2,5.5l-3.6-22.7
			c-4.4-27.2-0.7-59.2,10.2-90.4c12.6-36,34.9-70.6,64.4-100.1c35-35,77.7-51.3,107.3-59c32.2-8.2,60.4-9.2,79.4-7l0.7,29.9
			l29.9,0.7C441.8,122.2,440.9,150.3,432.7,182.5z"/>
	</g>
</g>
<g>
	<g>
		<path class="st0" d="M120.3,391.7L120.3,391.7L120.3,391.7z"/>
	</g>
</g>
</svg>
