<?xml version="1.0" encoding="utf-8"?>
<!-- Generator: Adobe Illustrator 21.1.0, SVG Export Plug-In . SVG Version: 6.00 Build 0)  -->
<svg version="1.1" id="Слой_1" xmlns="http://www.w3.org/2000/svg" xmlns:xlink="http://www.w3.org/1999/xlink" x="0px" y="0px"
	 viewBox="0 0 722.7 72.5" style="enable-background:new 0 0 722.7 72.5;" xml:space="preserve">
<style type="text/css">
	.st0{fill:#FFFFFF;}
	.st1{fill:#FF0000;}
</style>
<title>logo</title>
<path class="st0" d="M149.1,15.9v17.2h-11.3v15.7c0,2.3,0.8,3.8,2.4,4.4c1.6,0.6,4.6,0.8,8.8,0.6v16.3c-10.7,1.3-18.3,0.4-22.8-2.9
	c-4.3-3.4-6.5-9.4-6.5-17.9V33.2h-8.1V15.9h8.1V6.2l18-5.4V16h11.4V15.9z M212.3,49.7H175c1.8,4.4,5.9,6.6,12.1,6.6
	c3.7,0.1,7.2-1.3,9.9-3.8l13,9.1c-5.3,6.7-13,10.1-23.3,10.1c-9.2,0-16.5-2.7-22.1-8s-8.3-12.2-8.2-20.5c-0.2-7.7,2.7-15.1,8.1-20.5
	c5.4-5.5,12.3-8.2,20.7-8.2c8.1,0,14.8,2.7,20,8.1s7.9,12.2,7.9,20.4C213.1,45.2,212.9,47.5,212.3,49.7L212.3,49.7z M174.7,37.2
	h20.8c-1.4-5.1-4.8-7.6-10.2-7.6C179.8,29.6,176.3,32.1,174.7,37.2z M254.9,42.5l19.6,27.6h-20.3l-9.4-13.4L235.4,70H215l19.6-27.6
	l-18.9-26.5H236l8.7,12.3l8.7-12.3h20.4L254.9,42.5L254.9,42.5z M315.7,15.9v17.2h-11.3v15.7c0,2.3,0.8,3.8,2.4,4.4
	c1.6,0.6,4.6,0.8,8.8,0.6v16.3c-10.7,1.3-18.3,0.4-22.8-2.9c-4.3-3.4-6.5-9.4-6.5-17.9V33.2h-8.1V15.9h8.1V6.2l18-5.4V16h11.4V15.9z
	 M351.7,71.7c-8.2,0-15.1-2.7-20.6-8.2c-5.4-5.4-8.4-12.7-8.2-20.4c-0.2-7.6,2.8-15,8.2-20.4c5.5-5.5,12.3-8.2,20.6-8.2
	c5.1-0.1,10.1,1.2,14.6,3.7c4.3,2.4,7.8,5.9,10.1,10.2l-15.3,8.9c-1.9-3.5-5.1-5.3-9.4-5.3c-2.8-0.1-5.6,1-7.6,3.1s-3.1,5-3,8
	c-0.1,3,1,5.9,3,8c2,2,4.7,3.2,7.6,3.1c4.4,0,7.5-1.8,9.4-5.4l15.4,8.9c-2.4,4.3-5.9,7.9-10.1,10.3c-4.4,2.5-9.5,3.9-14.6,3.8
	L351.7,71.7z M409.9,71.7c-7.7,0.2-15.1-2.8-20.5-8.2c-5.6-5.3-8.6-12.7-8.5-20.4c-0.1-7.6,3-15,8.5-20.3c5.4-5.4,12.8-8.5,20.5-8.4
	c7.7-0.2,15.1,2.9,20.5,8.4c5.5,5.3,8.6,12.6,8.5,20.3c0.2,7.7-2.9,15.1-8.5,20.4C425,68.9,417.6,71.9,409.9,71.7L409.9,71.7z
	 M409.9,54.3c2.9,0.1,5.8-1,7.9-3.1c2.1-2.2,3.2-5.1,3.1-8.1c0.1-3-1-6-3.1-8.1s-4.9-3.2-7.8-3.1c-2.9-0.1-5.8,1.1-7.8,3.2
	c-2,2.2-3.1,5.1-3,8.1c-0.1,3,1,5.9,3,8.1C404.2,53.2,407,54.4,409.9,54.3L409.9,54.3z M483.6,44.8V15.9h18v54.2h-18v-5.4
	c-3.3,4.6-8.3,6.9-15.1,6.9c-6,0-10.8-2-14.5-6.1c-3.6-4.1-5.5-9.8-5.5-17.2V15.9h18V46c-0.2,2.3,0.6,4.6,2.2,6.3
	c1.6,1.5,3.8,2.4,6,2.2c2.5,0.1,4.8-0.8,6.6-2.5C482.9,50.4,483.7,48,483.6,44.8L483.6,44.8z M547.5,14.4c6,0,10.8,2,14.5,6.1
	s5.5,9.8,5.5,17.2v32.4h-18V40c0.2-2.3-0.6-4.6-2.2-6.3c-1.6-1.5-3.8-2.4-6-2.2c-2.5-0.1-4.8,0.8-6.5,2.6c-1.6,1.7-2.3,4.1-2.3,7.3
	v28.8h-18V15.9h18v5.4C535.6,16.7,540.7,14.4,547.5,14.4L547.5,14.4z M613.2,15.9v17.2H602v15.7c0,2.3,0.8,3.8,2.4,4.4
	c1.6,0.6,4.6,0.8,8.8,0.6v16.3c-10.7,1.3-18.3,0.4-22.8-2.9c-4.3-3.4-6.5-9.4-6.5-17.9V33.2h-8.1V15.9h8.1V6.2l18-5.4V16h11.3V15.9z
	 M676.5,49.7h-37.4c1.8,4.4,5.9,6.6,12.1,6.6c3.7,0.1,7.2-1.3,9.9-3.8l13,9.1c-5.3,6.7-13,10.1-23.3,10.1c-9.2,0-16.5-2.7-22.1-8
	s-8.3-12.2-8.2-20.5c-0.2-7.7,2.7-15.1,8.1-20.5c5.4-5.5,12.3-8.2,20.7-8.2c8.1,0,14.8,2.7,20,8.1s7.9,12.2,7.9,20.4
	C677.2,45.2,677,47.5,676.5,49.7L676.5,49.7z M638.9,37.2h20.8c-1.4-5.1-4.8-7.6-10.2-7.6C643.9,29.6,640.4,32.1,638.9,37.2z
	 M705.4,15.9V26c0.9-3.4,3.1-6.3,6-8.2c3-2,6.6-3.1,10.2-3v19.9c-3.9-0.7-7.9,0.1-11.3,2.3c-3.3,2.2-5,5.7-5,10.6v22.5h-18V15.9
	H705.4z"/>
<path class="st0" d="M18.3,15.8h49.9c9.4,0,17.1,7.7,17.1,17.1v21c0,9.4-7.7,17.1-17.1,17.1H18.3C8.9,71,1.2,63.3,1.2,53.9v-21
	C1.2,23.4,8.8,15.8,18.3,15.8z M18.3,35.2h49.9c1.3,0,2.4-1.1,2.4-2.4c0-1.3-1.1-2.4-2.4-2.4H18.3c-1.3,0-2.4,1.1-2.4,2.4
	C15.9,34.2,17,35.2,18.3,35.2L18.3,35.2z M18.3,56.2h34.4c1.3,0,2.4-1.1,2.4-2.4c0-1.3-1.1-2.4-2.4-2.4H18.3c-1.3,0-2.4,1.1-2.4,2.4
	C15.9,55.2,17,56.2,18.3,56.2L18.3,56.2z M18.3,45.7h49.9c1.3,0,2.4-1.1,2.4-2.4c0-1.3-1.1-2.4-2.4-2.4H18.3c-1.3,0-2.4,1.1-2.4,2.4
	C15.9,44.7,17,45.7,18.3,45.7L18.3,45.7z"/>
<path class="st1" d="M85.3,30c7.8,0,14.2-6.4,14.2-14.2S93.1,1.6,85.3,1.6S71.1,8,71.1,15.8l0,0C71.1,23.6,77.4,29.9,85.3,30z"/>
<polygon class="st0" points="80.2,9 84.7,7.4 88.4,7.4 88.4,24.2 84.1,24.2 84.1,11.9 81.2,12.6 "/>
</svg>
