<?xml version="1.0" encoding="utf-8"?>
<!-- Generator: Adobe Illustrator 21.1.0, SVG Export Plug-In . SVG Version: 6.00 Build 0)  -->
<svg version="1.1" id="Слой_1" xmlns="http://www.w3.org/2000/svg" xmlns:xlink="http://www.w3.org/1999/xlink" x="0px" y="0px"
	 viewBox="0 0 300 300" style="enable-background:new 0 0 300 300;" xml:space="preserve">
<style type="text/css">
	.st0{fill:#FFFFFF;}
</style>
<title>logo</title>
<path d="M238,298H62c-33.1,0-60-26.9-60-60V62C2,28.9,28.9,2,62,2h176c33.1,0,60,26.9,60,60v176C298,271.1,271.1,298,238,298z"/>
<g>
	<path class="st0" d="M77.7,55.3v17.1H67.5v10.5c0,1.6,0.4,2.8,1.2,3.6s1.9,1.2,3.5,1.3c1.5,0.1,3.4,0.1,5.6,0V104
		c-10.1,1.4-17.3,0.6-21.7-2.6c-4.3-3.1-6.5-9-6.5-17.5V72.4h-6.8V55.3h6.8v-8.3l18-5.3v13.6H77.7z"/>
	<path class="st0" d="M131.9,85.8H99.6c1.6,3.2,4.9,4.9,9.9,4.9c2.9,0,5.7-1,8.3-3.1l11.8,9.9c-4.9,5.3-11.7,7.9-20.6,7.9
		c-8.2,0-14.9-2.4-20-7.2c-5-4.9-7.5-11-7.5-18.3c0-7.4,2.4-13.5,7.3-18.5c4.9-4.9,11.1-7.4,18.6-7.4c7.4,0,13.5,2.4,18.2,7.3
		c4.8,4.8,7.2,10.9,7.2,18.2C132.7,81.5,132.4,83.6,131.9,85.8z M99.3,74.2h16.3c-1-3.9-3.7-5.8-7.9-5.8
		C103.6,68.4,100.8,70.3,99.3,74.2z"/>
	<path class="st0" d="M169.4,79.1l17.7,24.9h-19.9l-7.8-10.9l-7.8,10.9h-19.9l17.8-24.9l-17-23.7h19.9l7,9.8l7-9.8h19.9L169.4,79.1z
		"/>
	<path class="st0" d="M223.1,55.3v17.1h-10.2v10.5c0,1.6,0.4,2.8,1.2,3.6s1.9,1.2,3.5,1.3c1.5,0.1,3.4,0.1,5.6,0V104
		c-10.1,1.4-17.3,0.6-21.7-2.6c-4.3-3.1-6.5-9-6.5-17.5V72.4h-6.8V55.3h6.8v-8.3l18-5.3v13.6H223.1z"/>
	<path class="st0" d="M69.5,178.2c-7.5,0-13.6-2.4-18.6-7.3c-4.9-4.9-7.4-11.1-7.4-18.4c0-7.3,2.5-13.4,7.4-18.3
		c4.9-4.9,11.1-7.4,18.6-7.4c4.8,0,9.2,1.2,13.2,3.5c4,2.3,7.1,5.4,9.2,9.3l-15.2,8.7c-1.6-2.7-4-4.1-7.2-4.1
		c-2.3,0-4.2,0.8-5.7,2.4c-1.5,1.6-2.3,3.6-2.3,6s0.8,4.4,2.3,6c1.5,1.6,3.4,2.4,5.7,2.4c3.4,0,5.8-1.4,7.2-4.2l15.2,8.8
		c-2.1,4-5.2,7.1-9.2,9.3S74.3,178.2,69.5,178.2z"/>
	<path class="st0" d="M119.3,178.2c-7.3,0-13.5-2.5-18.6-7.4c-5.1-4.9-7.6-11-7.6-18.3s2.5-13.4,7.6-18.3c5-4.9,11.2-7.4,18.6-7.4
		c7.4,0,13.6,2.5,18.6,7.4c5.1,5,7.6,11.1,7.6,18.3c0,7.3-2.5,13.4-7.6,18.3C132.8,175.8,126.7,178.2,119.3,178.2z M113.3,158.8
		c1.6,1.6,3.5,2.3,5.9,2.3c2.4,0,4.3-0.8,5.8-2.3c1.6-1.7,2.3-3.8,2.3-6.2c0-2.5-0.8-4.6-2.3-6.1c-1.4-1.6-3.4-2.4-5.8-2.4
		c-2.4,0-4.4,0.8-5.9,2.4c-1.5,1.6-2.2,3.7-2.2,6.1S111.8,157.1,113.3,158.8z"/>
	<path class="st0" d="M181.2,153.3v-25h18v48.6h-18v-4.8c-3,4.1-7.3,6.1-13,6.1c-5.4,0-9.7-1.9-12.9-5.6s-4.7-9.2-4.7-16.2v-28.1h18
		v26.2c0,4.3,2,6.5,6,6.5c2.1,0,3.8-0.7,4.9-2C180.6,157.5,181.2,155.7,181.2,153.3z"/>
	<path class="st0" d="M238,126.9c5.4,0,9.7,1.9,12.9,5.6c3.1,3.8,4.7,9.2,4.7,16.2v28.1h-18v-26.2c0-4.3-2-6.5-6-6.5
		c-2.1,0-3.8,0.7-4.9,2c-1.1,1.4-1.7,3.2-1.7,5.6v25h-18v-48.6h18v4.8C228,128.9,232.4,126.9,238,126.9z"/>
	<path class="st0" d="M77.7,201.2v17.1H67.5v10.5c0,1.6,0.4,2.8,1.2,3.6c0.8,0.8,1.9,1.2,3.5,1.3c1.5,0.1,3.4,0.1,5.6,0v16.1
		c-10.1,1.4-17.3,0.6-21.7-2.6c-4.3-3.1-6.5-9-6.5-17.5v-11.5h-6.8v-17.1h6.8v-8.3l18-5.3v13.6H77.7z"/>
	<path class="st0" d="M131.9,231.6H99.6c1.6,3.2,4.9,4.9,9.9,4.9c2.9,0,5.7-1,8.3-3.1l11.8,9.9c-4.9,5.3-11.7,7.9-20.6,7.9
		c-8.2,0-14.9-2.4-20-7.2c-5-4.9-7.5-11-7.5-18.3c0-7.4,2.4-13.5,7.3-18.5c4.9-4.9,11.1-7.4,18.6-7.4c7.4,0,13.5,2.4,18.2,7.3
		c4.8,4.8,7.2,10.9,7.2,18.2C132.7,227.3,132.4,229.4,131.9,231.6z M99.3,220.1h16.3c-1-3.9-3.7-5.8-7.9-5.8
		C103.6,214.2,100.8,216.2,99.3,220.1z"/>
	<path class="st0" d="M156,201.2v9.4c0.9-3.2,2.7-5.8,5.3-7.6c2.6-1.8,5.7-2.8,9.3-2.8v19.4c-3.9-0.5-7.3,0.3-10.2,2.3
		c-2.9,2.1-4.4,5.3-4.4,9.7v18.1h-18v-48.6H156z"/>
</g>
<rect x="188.6" y="189.8" class="st0" width="5" height="65.5"/>
<rect x="180.7" y="189.8" class="st0" width="20.8" height="5"/>
<rect x="180.7" y="250.8" class="st0" width="20.8" height="5"/>
</svg>
