<?xml version="1.0" encoding="utf-8"?>
<!-- Generator: Adobe Illustrator 21.1.0, SVG Export Plug-In . SVG Version: 6.00 Build 0)  -->
<svg version="1.1" id="Слой_1" xmlns="http://www.w3.org/2000/svg" xmlns:xlink="http://www.w3.org/1999/xlink" x="0px" y="0px"
	 viewBox="0 0 150 150" style="enable-background:new 0 0 150 150;" xml:space="preserve">
<g>
	<path d="M107.2,62.2H75.7c-2.5,0-4.6,2.1-4.6,4.6s2.1,4.6,4.6,4.6h31.5c2.5,0,4.6-2.1,4.6-4.6S109.7,62.2,107.2,62.2z"/>
	<path d="M121,43.6H75.7c-2.5,0-4.6,2.1-4.6,4.6s2.1,4.6,4.6,4.6H121c2.5,0,4.6-2.1,4.6-4.6S123.5,43.6,121,43.6z"/>
	<path d="M88.7,122.9c0,3.3-1.4,6.3-3.6,8.5c-2.2,2.2-5.2,3.6-8.5,3.6H26.7c-3.3,0-6.3-1.4-8.5-3.6c-2.2-2.2-3.6-5.2-3.6-8.5V71.3
		c0-3.3,1.4-6.3,3.6-8.5s5.2-3.6,8.5-3.6h18.6v-10H26.7c-6.1,0-11.6,2.4-15.6,6.5c-4,4-6.5,9.5-6.5,15.6v51.6
		c0,6.1,2.5,11.6,6.5,15.6s9.5,6.5,15.6,6.5h49.9c6.1,0,11.6-2.5,15.6-6.5s6.5-9.5,6.5-15.6v-17h-10V122.9z"/>
	<path d="M121,24.2H75.7c-2.6,0-4.7,2.1-4.6,4.6c0,2.5,2.1,4.6,4.6,4.6H121c2.5,0,4.6-2.1,4.6-4.6S123.5,24.2,121,24.2z"/>
	<path d="M138.9,10.5c-4-4-9.5-6.5-15.6-6.5H73.4c-6.1,0-11.6,2.5-15.6,6.5s-6.5,9.5-6.5,15.6v51.6c0,3.9,1,7.5,2.8,10.7l-16.4,16.5
		l-11-11v29h29l-11-11l16.1-16.1c3.6,2.5,7.9,4,12.6,4h49.9c6.1,0,11.6-2.5,15.6-6.5s6.5-9.5,6.5-15.6V26.1
		C145.4,20,142.9,14.5,138.9,10.5z M135.4,77.7c0,3.3-1.4,6.3-3.6,8.5c-2.2,2.2-5.2,3.6-8.5,3.6H73.4c-3.3,0-6.3-1.4-8.5-3.6
		c-2.2-2.2-3.6-5.2-3.6-8.5V26.1c0-3.3,1.4-6.3,3.6-8.5c2.2-2.2,5.2-3.6,8.5-3.6h49.9c3.3,0,6.3,1.4,8.5,3.6
		c2.2,2.2,3.6,5.2,3.6,8.5V77.7z"/>
</g>
</svg>
