<?xml version="1.0" encoding="utf-8"?>
<!-- Generator: Adobe Illustrator 21.1.0, SVG Export Plug-In . SVG Version: 6.00 Build 0)  -->
<svg version="1.1" id="Layer_1" xmlns="http://www.w3.org/2000/svg" xmlns:xlink="http://www.w3.org/1999/xlink" x="0px" y="0px"
	 viewBox="0 0 512 512" style="enable-background:new 0 0 512 512;" xml:space="preserve">
<style type="text/css">
	.st0{fill-rule:evenodd;clip-rule:evenodd;fill:#FFFFFF;}
</style>
<path class="st0" d="M167.5,214.7c0-7.6,6.1-13.7,13.7-13.7c7.6,0,13.7,6.1,13.7,13.7v155.6c0,7.6-6.1,13.7-13.7,13.7
	c-7.6,0-13.7-6.1-13.7-13.7V214.7L167.5,214.7L167.5,214.7z M181.8,118.3H57.2c-8.5,0-15.2,6.7-15.2,15.2s6.7,15.2,15.2,15.2h23.4
	v252.9c0,37.1,30.1,67.2,67.2,67.2h216.4c37.1,0,67.2-30.1,67.2-67.2V148.7h23.4c8.5,0,15.2-6.7,15.2-15.2s-6.7-15.2-15.2-15.2
	H330.2v-7.9c0-37.1-30.4-67.2-67.2-67.2h-14c-37.1,0-67.2,30.1-67.2,67.2V118.3L181.8,118.3L181.8,118.3z M299.8,118.3h-87.5v-7.9
	c0-20.1,16.7-36.8,36.8-36.8h14c20.1,0,36.8,16.7,36.8,36.8V118.3L299.8,118.3L299.8,118.3z M111,148.7v252.9
	c0,20.1,16.7,36.8,36.8,36.8h216.4c20.1,0,36.8-16.7,36.8-36.8V148.7H111L111,148.7L111,148.7z M243.8,214.7
	c0-7.6,6.1-13.7,13.7-13.7c7.6,0,13.7,6.1,13.7,13.7v155.6c0,7.6-6.1,13.7-13.7,13.7c-7.6,0-13.7-6.1-13.7-13.7V214.7L243.8,214.7
	L243.8,214.7z M320.4,214.7c0-7.6,6.1-13.7,13.7-13.7c7.6,0,13.7,6.1,13.7,13.7v155.6c0,7.6-6.1,13.7-13.7,13.7
	c-7.6,0-13.7-6.1-13.7-13.7V214.7z"/>
</svg>
