<?xml version="1.0" encoding="utf-8"?>
<!-- Generator: Adobe Illustrator 21.1.0, SVG Export Plug-In . SVG Version: 6.00 Build 0)  -->
<svg version="1.1" id="Слой_1" xmlns="http://www.w3.org/2000/svg" xmlns:xlink="http://www.w3.org/1999/xlink" x="0px" y="0px"
	 viewBox="0 0 451.5 811.5" style="enable-background:new 0 0 451.5 811.5;" xml:space="preserve">
<style type="text/css">
	.st0{fill-rule:evenodd;clip-rule:evenodd;fill:#FFFFFF;}
	.st1{fill-rule:evenodd;clip-rule:evenodd;fill:#FF0000;}
	.st2{fill-rule:evenodd;clip-rule:evenodd;}
</style>
<path class="st0" d="M63.7,272c22.5,10.5,45.3,15.6,69.5,15.6c78-0.7,141.8-46.1,224.9-46.7c23.7,0,46.5,4,68.9,12L386.9,37.5
	c-22.5-10.5-45.3-15.6-69.5-15.6c-36.2,0-70.7,11-107.2,22.6c-37.4,11.9-76,24.2-117.7,24.2c0,0,0,0,0,0c-23.7,0-46.5-4-68.8-12
	C37,128.4,50.4,200.2,63.7,272z"/>
<path class="st1" d="M414.1,183.4c-22.5-10.5-45.3-15.6-69.5-15.6c-36.2,0-70.7,11-107.2,22.6c-37.4,11.9-76,24.2-117.7,24.2
	c0,0,0,0,0,0c-23.7,0-46.5-4-68.8-12l-13.6-73c22.4,8.1,45.1,12,68.8,12c0,0,0,0,0,0c41.7,0,80.3-12.3,117.7-24.2
	c36.5-11.6,71-22.6,107.2-22.6c24.2,0,47,5.1,69.5,15.6L414.1,183.4z"/>
<path class="st2" d="M7,35.3c-1.2-6.8,3.2-13.3,10-14.5c6.8-1.2,13.3,3.2,14.5,10l3,16.3c8.2,2.6,16.6,4.7,25.1,6.2
	c10.9,1.9,21.8,2.8,32.8,2.8v0h0v0c19.7,0,38.9-3,57.6-7.3c19.5-4.5,38.1-10.4,56.3-16.2c18.7-5.9,36.9-11.7,54.6-15.9
	c18.6-4.4,37.2-7.3,56.3-7.3c12.9,0,25.5,1.4,38.1,4.2c12.6,2.8,24.8,7,36.7,12.5l0,0c3.5,1.6,6.2,4.9,7,9.1l40.1,215.4l0,0
	c0.4,2.1,0.2,4.3-0.5,6.4c-2.3,6.5-9.4,9.8-15.9,7.5c-10.4-3.7-21-6.6-31.8-8.4c-10.7-1.9-21.6-2.8-32.8-2.8v0
	c-40.3,0.3-76.7,11.9-112.4,23.3c-36,11.5-71.5,22.8-111.2,23.4c-0.4,0-0.8,0.1-1.3,0.1c-12.9,0-25.5-1.4-38.1-4.2
	c-5.1-1.1-10.1-2.5-15.1-4.1L199.5,927c1.2,6.8-3.2,13.3-10,14.5c-6.8,1.2-13.3-3.2-14.5-10L51.5,274.2l0,0L25.3,133.6L7,35.3
	L7,35.3z M63.1,200.6l11.7,62.7c8.6,3.6,17.2,6.4,25.8,8.3c10.5,2.4,21.4,3.5,32.7,3.5c0.3,0,0.6,0,0.9,0
	c36.1-0.5,69.8-11.3,104-22.2c37.6-12,75.7-24.2,119.9-24.5l0,0v0c12.5,0,24.8,1.1,37,3.2c5.3,0.9,10.5,2,15.8,3.4L375.8,46.2
	c-8.6-3.6-17.2-6.4-25.8-8.3c-10.5-2.4-21.4-3.5-32.7-3.5c-17,0-33.8,2.6-50.6,6.6c-17.7,4.2-35,9.7-52.8,15.3
	c-19.1,6.1-38.6,12.3-58.2,16.8c-20.3,4.7-41.3,7.9-63.3,7.9v0h0v0c-12.7,0-25-1-37-3.1c-5.3-0.9-10.5-2-15.8-3.4L63.1,200.6z"/>
</svg>
