<?xml version="1.0" encoding="utf-8"?>
<!-- Generator: Adobe Illustrator 21.1.0, SVG Export Plug-In . SVG Version: 6.00 Build 0)  -->
<svg version="1.1" id="Слой_1" xmlns="http://www.w3.org/2000/svg" xmlns:xlink="http://www.w3.org/1999/xlink" x="0px" y="0px"
	 viewBox="0 0 150 150" style="enable-background:new 0 0 150 150;" xml:space="preserve">
<style type="text/css">
	.st0{fill-rule:evenodd;clip-rule:evenodd;}
</style>
<path class="st0" d="M45.9,61.4c0-2.5,2-4.5,4.5-4.5c2.5,0,4.5,2,4.5,4.5v51.2c0,2.5-2,4.5-4.5,4.5c-2.5,0-4.5-2-4.5-4.5V61.4
	L45.9,61.4z M50.6,29.7h-41c-2.8,0-5,2.2-5,5s2.2,5,5,5h7.7v83.2c0,12.2,9.9,22.1,22.1,22.1h71.2c12.2,0,22.1-9.9,22.1-22.1V39.7
	h7.7c2.8,0,5-2.2,5-5s-2.2-5-5-5h-41v-2.6C99.4,14.9,89.4,5,77.3,5h-4.6c-12.2,0-22.1,9.9-22.1,22.1V29.7L50.6,29.7z M89.4,29.7
	H60.6v-2.6c0-6.6,5.5-12.1,12.1-12.1h4.6c6.6,0,12.1,5.5,12.1,12.1V29.7L89.4,29.7z M27.3,39.7v83.2c0,6.6,5.5,12.1,12.1,12.1h71.2
	c6.6,0,12.1-5.5,12.1-12.1V39.7H27.3L27.3,39.7z M71,61.4c0-2.5,2-4.5,4.5-4.5c2.5,0,4.5,2,4.5,4.5v51.2c0,2.5-2,4.5-4.5,4.5
	c-2.5,0-4.5-2-4.5-4.5V61.4L71,61.4z M96.2,61.4c0-2.5,2-4.5,4.5-4.5s4.5,2,4.5,4.5v51.2c0,2.5-2,4.5-4.5,4.5s-4.5-2-4.5-4.5V61.4z"
	/>
</svg>
