<?xml version="1.0" encoding="utf-8"?>
<!-- Generator: Adobe Illustrator 21.1.0, SVG Export Plug-In . SVG Version: 6.00 Build 0)  -->
<svg version="1.1" id="Слой_1" xmlns="http://www.w3.org/2000/svg" xmlns:xlink="http://www.w3.org/1999/xlink" x="0px" y="0px"
	 viewBox="0 0 150 150" style="enable-background:new 0 0 150 150;" xml:space="preserve">
<style type="text/css">
	.st0{fill:#DFC800;}
</style>
<path class="st0" d="M46.1,65.3c0-2.5,2-4.5,4.5-4.5s4.5,2,4.5,4.5v50.8c0,2.5-2,4.5-4.5,4.5s-4.5-2-4.5-4.5V65.3L46.1,65.3
	L46.1,65.3z M25.1,12.5c-2.7,0.5-5.3-1.2-5.9-3.9c-0.5-2.7,1.2-5.3,3.9-5.9c1.4-0.3,3-0.5,4.6-0.7c1.7-0.2,3.2-0.2,4.7-0.2
	c13.3,0,25.3,5.4,34,14.1s14.1,20.7,14.1,34l0,0v1.4l6.6-6.6c2-2,5.1-2,7.1,0s2,5.1,0,7.1l-15.1,15c-0.2,0.2-0.3,0.3-0.5,0.5l0,0
	c0,0-0.1,0-0.1,0.1l0,0c0,0-0.1,0-0.1,0.1l0,0c0,0,0,0-0.1,0.1l0,0h-0.1l0,0c0,0,0,0-0.1,0l0,0H78l0,0h-0.1l0,0c0,0-0.1,0-0.1,0.1
	l0,0c-0.7,0.3-1.4,0.5-2.2,0.5c-0.8,0-1.5-0.2-2.2-0.5l0,0c0,0-0.1,0-0.1-0.1l0,0h-0.1l0,0h-0.1l0,0H73l0,0h-0.1l0,0
	c0,0-0.1,0-0.1-0.1l0,0c0,0-0.1,0-0.1-0.1l0,0c0,0-0.1,0-0.1-0.1l0,0c-0.2-0.1-0.3-0.3-0.5-0.5L56.8,51.7c-2-2-2-5.1,0-7.1
	s5.1-2,7.1,0l6.6,6.6v-1.4l0,0c0-10.5-4.3-20-11.2-26.9C52.5,16,43,11.8,32.5,11.8c-1.4,0-2.6,0.1-3.7,0.2
	C27.6,12,26.4,12.2,25.1,12.5L25.1,12.5z M104,43.8h18.3v82.5c0,6.5-5.5,12-12,12H39.7c-6.5,0-12-5.5-12-12V43.8l0,0h19
	c2.7,0,5-2.2,5-5c0-2.7-2.2-5-5-5H10.1c-2.8,0-5,2.2-5,5s2.2,5,5,5h7.6v82.5c0,12.1,9.8,21.9,21.9,21.9h70.6
	c12.1,0,21.9-9.8,21.9-21.9V43.8h7.6c2.8,0,5-2.2,5-5s-2.2-5-5-5H104c-2.7,0-5,2.2-5,5S101.2,43.8,104,43.8L104,43.8z M71,78.8
	c0-2.5,2-4.5,4.5-4.5s4.5,2,4.5,4.5v37.3c0,2.5-2,4.5-4.5,4.5s-4.5-2-4.5-4.5V78.8L71,78.8L71,78.8z M96,65.3c0-2.5,2-4.5,4.5-4.5
	s4.5,2,4.5,4.5v50.8c0,2.5-2,4.5-4.5,4.5s-4.5-2-4.5-4.5V65.3z"/>
</svg>
