<?xml version="1.0" encoding="utf-8"?>
<!-- Generator: Adobe Illustrator 21.1.0, SVG Export Plug-In . SVG Version: 6.00 Build 0)  -->
<svg version="1.1" id="Слой_1" xmlns="http://www.w3.org/2000/svg" xmlns:xlink="http://www.w3.org/1999/xlink" x="0px" y="0px"
	 viewBox="0 0 300 300" style="enable-background:new 0 0 300 300;" xml:space="preserve">
<style type="text/css">
	.st0{fill:#DFC800;}
</style>
<title>logo</title>
<path class="st0" d="M309,309H-8.9V-8.9H309V309z"/>
<g>
	<path d="M106.6,138.8c-4.6,4.5-10.2,6.8-16.7,6.8c-6.7,0-12.3-2.3-16.8-6.8c-4.6-4.5-6.8-10.1-6.8-16.7c0-6.6,2.3-12.2,6.8-16.7
		c4.6-4.6,10.2-6.8,16.8-6.8c6.6,0,12.2,2.3,16.7,6.8c4.6,4.5,6.9,10.1,6.9,16.7C113.4,128.7,111.2,134.2,106.6,138.8z M81.1,130.9
		c2.4,2.3,5.3,3.4,8.7,3.4c3.4,0,6.3-1.1,8.7-3.4c2.3-2.3,3.5-5.3,3.5-8.8c0-3.6-1.2-6.5-3.5-8.8c-2.3-2.3-5.2-3.5-8.7-3.5
		c-3.5,0-6.4,1.2-8.7,3.5c-2.3,2.2-3.5,5.2-3.5,8.8C77.6,125.7,78.8,128.6,81.1,130.9z"/>
	<path d="M153.3,99.5h11.5v45.1h-11.5v-24.3l-10.9,18.1h-1.2l-10.9-18v24.2h-11.5V99.5h11.5l11.5,19.3L153.3,99.5z"/>
	<path d="M194,118.8h22.7v4.6c0,6.6-2.1,12-6.2,16.1c-4.2,4.1-9.5,6.1-16.1,6.1c-7,0-12.8-2.3-17.4-6.8c-4.5-4.5-6.8-10.1-6.8-16.7
		c0-6.6,2.3-12.1,6.8-16.7c4.5-4.6,10.1-6.8,16.7-6.8c4.2,0,8,0.9,11.5,2.8c3.5,1.8,6.2,4.4,8.2,7.5l-9.8,5.6
		c-0.9-1.4-2.2-2.6-4-3.4c-1.8-0.9-3.7-1.3-5.9-1.3c-3.6,0-6.5,1.2-8.8,3.5c-2.3,2.4-3.4,5.3-3.4,8.9c0,3.5,1.1,6.5,3.3,8.8
		c2.3,2.4,5.5,3.6,9.5,3.6c5.2,0,8.7-2,10.4-5.9H194V118.8z"/>
	<path d="M221.3,138.8c0-1.8,0.7-3.4,2-4.7c1.3-1.3,2.9-2,4.7-2c1.8,0,3.4,0.7,4.7,2c1.3,1.3,2,2.9,2,4.7c0,1.9-0.7,3.5-2,4.8
		c-1.3,1.3-2.9,1.9-4.7,1.9c-1.8,0-3.4-0.6-4.7-1.9C221.9,142.3,221.3,140.7,221.3,138.8z M232.4,128.2h-8.9l-2.1-15.8V99.5h13.1
		v12.9L232.4,128.2z"/>
	<path d="M96.6,183.1h4.5v10.5h-4.5v6.9H85.1v-6.9H65.3v-10.5l13.5-27.7h12.8L78,183.1h7.1v-8.1h11.5V183.1z"/>
	<path d="M135.9,195c-3.3,4.3-7.8,6.4-13.7,6.4c-5.9,0-10.5-2.1-13.8-6.4c-3.3-4.3-4.9-10-4.9-17.1c0-7.2,1.6-12.9,4.9-17.1
		c3.3-4.3,7.9-6.4,13.8-6.4c5.9,0,10.5,2.1,13.7,6.4c3.3,4.3,5,10,5,17.1C140.9,185,139.2,190.7,135.9,195z M122.2,165.6
		c-4.8,0-7.1,4.1-7.1,12.3c0,8.2,2.4,12.3,7.1,12.3c4.8,0,7.1-4.1,7.1-12.3C129.4,169.7,127,165.6,122.2,165.6z"/>
	<path d="M175,183.1h4.5v10.5H175v6.9h-11.5v-6.9h-19.8v-10.5l13.5-27.7H170l-13.6,27.7h7.1v-8.1H175V183.1z"/>
	<path d="M182.8,194.7c0-1.8,0.7-3.4,2-4.7c1.3-1.3,2.9-2,4.7-2c1.8,0,3.4,0.7,4.7,2s2,2.9,2,4.7c0,1.9-0.7,3.5-2,4.8
		c-1.3,1.3-2.9,1.9-4.7,1.9c-1.8,0-3.4-0.6-4.7-1.9C183.5,198.1,182.8,196.5,182.8,194.7z M194,184h-8.9l-2.1-15.8v-12.9h13.1v12.9
		L194,184z"/>
</g>
</svg>
