<?xml version="1.0" encoding="utf-8"?>
<!-- Generator: Adobe Illustrator 21.1.0, SVG Export Plug-In . SVG Version: 6.00 Build 0)  -->
<svg version="1.1" id="Слой_1" xmlns="http://www.w3.org/2000/svg" xmlns:xlink="http://www.w3.org/1999/xlink" x="0px" y="0px"
	 viewBox="0 0 72.3 72.5" style="enable-background:new 0 0 72.3 72.5;" xml:space="preserve">
<style type="text/css">
	.st0{fill:#222222;}
</style>
<title>logo</title>
<path class="st0" d="M54,71.4c9.5,0,17.2-7.8,17.2-17.2V18.4c0-9.5-7.8-17.2-17.2-17.2H18.3C8.8,1.2,1.1,8.8,1.1,18.3v35.9
	c0,9.5,7.8,17.2,17.2,17.2h10.2V60.2c-1.6,0.3-3,0.3-4.6-0.1c-2.1-0.6-3.8-2-5.1-4.2C18,54.5,16.5,53,15,53.1L14.7,49
	c3.3-0.3,6.1,2,7.8,4.8c0.7,1.3,1.6,2,2.7,2.3s2.2,0.2,3.5-0.3c0.3-2.7,1.6-3.7,2.5-5.1l0,0c-9.3-1.4-13.1-6.4-14.5-10.3
	c-2-5.2-0.9-11.7,2.6-15.8c0.1-0.1,0.2-0.3,0.1-0.4c-1.6-4.8,0.3-8.8,0.4-9.2c1.8,0.5,2.1-0.5,8,3l1,0.6c0.4,0.3,0.3,0.1,0.7,0.1
	c2.4-0.7,5-1,7.5-1.1c2.5,0,5.1,0.4,7.6,1.1h0.3c0,0,0.1,0,0.3-0.1c7.3-4.4,7-3,9-3.6c0.1,0.4,2,4.5,0.4,9.2
	c-0.2,0.7,6.3,6.6,2.7,16.2c-1.5,3.9-5.2,8.9-14.5,10.3l0,0c1.2,1.8,2.6,2.8,2.6,6.6v14.1H54z"/>
</svg>
