<?xml version="1.0" encoding="utf-8"?>
<!-- Generator: Adobe Illustrator 21.1.0, SVG Export Plug-In . SVG Version: 6.00 Build 0)  -->
<svg version="1.1" id="Слой_1" xmlns="http://www.w3.org/2000/svg" xmlns:xlink="http://www.w3.org/1999/xlink" x="0px" y="0px"
	 viewBox="0 0 303 142.9" style="enable-background:new 0 0 303 142.9;" xml:space="preserve">
<title>logo</title>
<path d="M42.1,15.9v17.2H30.8v15.7c0,2.3,0.8,3.8,2.4,4.4c1.6,0.6,4.6,0.8,8.8,0.6v16.3c-10.7,1.3-18.3,0.4-22.8-2.9
	c-4.3-3.4-6.5-9.4-6.5-17.9V33.2H4.6V15.9h8.1V6.2l18-5.4V16h11.4L42.1,15.9L42.1,15.9z M105.3,49.7H68c1.8,4.4,5.9,6.6,12.1,6.6
	c3.7,0.1,7.2-1.3,9.9-3.8l13,9.1c-5.3,6.7-13,10.1-23.3,10.1c-9.2,0-16.5-2.7-22.1-8s-8.3-12.2-8.2-20.5c-0.2-7.7,2.7-15.1,8.1-20.5
	c5.4-5.5,12.3-8.2,20.7-8.2c8.1,0,14.8,2.7,20,8.1s7.9,12.2,7.9,20.4C106.1,45.2,105.9,47.5,105.3,49.7L105.3,49.7z M67.7,37.2h20.8
	c-1.4-5.1-4.8-7.6-10.2-7.6C72.8,29.6,69.3,32.1,67.7,37.2z M147.9,42.5l19.6,27.6h-20.3l-9.4-13.4L128.4,70H108l19.6-27.6
	l-18.9-26.5H129l8.7,12.3l8.7-12.3h20.4L147.9,42.5L147.9,42.5z M208.7,15.9v17.2h-11.3v15.7c0,2.3,0.8,3.8,2.4,4.4
	c1.6,0.6,4.6,0.8,8.8,0.6v16.3c-10.7,1.3-18.3,0.4-22.8-2.9c-4.3-3.4-6.5-9.4-6.5-17.9V33.2h-8.1V15.9h8.1V6.2l18-5.4V16h11.4V15.9z
	"/>
<path d="M35.8,139.5c-8.2,0-15.1-2.7-20.6-8.2c-5.4-5.4-8.4-12.7-8.2-20.4c-0.2-7.6,2.8-15,8.2-20.4c5.5-5.5,12.3-8.2,20.6-8.2
	c5.1-0.1,10.1,1.2,14.6,3.7c4.3,2.4,7.8,5.9,10.1,10.2l-15.3,8.9c-1.9-3.5-5.1-5.3-9.4-5.3c-2.8-0.1-5.6,1-7.6,3.1s-3.1,5-3,8
	c-0.1,3,1,5.9,3,8c2,2,4.7,3.2,7.6,3.1c4.4,0,7.5-1.8,9.4-5.4l15.4,8.9c-2.4,4.3-5.9,7.9-10.1,10.3C46.1,138.3,41,139.7,35.8,139.5
	L35.8,139.5z M94,139.5c-7.7,0.2-15.1-2.8-20.5-8.2c-5.6-5.3-8.6-12.7-8.5-20.4c-0.1-7.6,3-15,8.5-20.3c5.4-5.4,12.8-8.5,20.5-8.4
	c7.7-0.2,15.1,2.9,20.5,8.4c5.5,5.3,8.6,12.6,8.5,20.3c0.2,7.7-2.9,15.1-8.5,20.4C109.1,136.7,101.7,139.7,94,139.5L94,139.5z
	 M94,122.1c2.9,0.1,5.8-1,7.9-3.1c2.1-2.2,3.2-5.1,3.1-8.1c0.1-3-1-6-3.1-8.1s-4.9-3.2-7.8-3.1c-2.9-0.1-5.8,1.1-7.8,3.2
	c-2,2.2-3.1,5.1-3,8.1c-0.1,3,1,5.9,3,8.1C88.3,121,91.1,122.2,94,122.1L94,122.1z M167.7,112.6V83.7h18v54.2h-18v-5.4
	c-3.3,4.6-8.3,6.9-15.1,6.9c-6,0-10.8-2-14.5-6.1c-3.6-4.1-5.5-9.8-5.5-17.2V83.7h18v30.1c-0.2,2.3,0.6,4.6,2.2,6.3
	c1.6,1.5,3.8,2.4,6,2.2c2.5,0.1,4.8-0.8,6.6-2.5C167,118.2,167.8,115.8,167.7,112.6L167.7,112.6z M231.6,82.2c6,0,10.8,2,14.5,6.1
	s5.5,9.8,5.5,17.2v32.4h-18v-30.1c0.2-2.3-0.6-4.6-2.2-6.3c-1.6-1.5-3.8-2.4-6-2.2c-2.5-0.1-4.8,0.8-6.5,2.6
	c-1.6,1.7-2.3,4.1-2.3,7.3V138h-18V83.7h18v5.4C219.7,84.5,224.8,82.2,231.6,82.2L231.6,82.2z M297.3,83.7v17.2h-11.2v15.7
	c0,2.3,0.8,3.8,2.4,4.4s4.6,0.8,8.8,0.6v16.3c-10.7,1.3-18.3,0.4-22.8-2.9c-4.3-3.4-6.5-9.4-6.5-17.9V101h-8.1V83.7h8.1V74l18-5.4
	v15.2L297.3,83.7L297.3,83.7z"/>
</svg>
