<?xml version="1.0" encoding="utf-8"?>
<!-- Generator: Adobe Illustrator 21.1.0, SVG Export Plug-In . SVG Version: 6.00 Build 0)  -->
<svg version="1.1" id="Слой_1" xmlns="http://www.w3.org/2000/svg" xmlns:xlink="http://www.w3.org/1999/xlink" x="0px" y="0px"
	 viewBox="0 0 300 300" style="enable-background:new 0 0 300 300;" xml:space="preserve">
<style type="text/css">
	.st0{fill:#DFC800;}
</style>
<title>logo</title>
<path class="st0" d="M308.9,308.9H-9V-9h317.9V308.9z"/>
<g>
	<path d="M91.1,72.8v14.1h-8.4v8.6c0,1.3,0.3,2.3,1,3c0.7,0.7,1.6,1,2.9,1.1c1.2,0.1,2.8,0.1,4.6,0v13.3c-8.3,1.2-14.2,0.5-17.8-2.1
		c-3.5-2.5-5.3-7.4-5.3-14.4v-9.5h-5.6V72.8H68V66l14.8-4.4v11.2C82.8,72.8,91.1,72.8,91.1,72.8z"/>
	<path d="M135.7,97.9h-26.6c1.3,2.6,4,4,8.1,4c2.4,0,4.7-0.8,6.8-2.5l9.7,8.1c-4,4.4-9.6,6.5-16.9,6.5c-6.7,0-12.3-2-16.5-5.9
		c-4.1-4-6.2-9-6.2-15.1c0-6.1,2-11.1,6-15.2c4-4,9.1-6.1,15.3-6.1c6.1,0,11.1,2,15,6c3.9,3.9,5.9,9,5.9,15
		C136.4,94.4,136.1,96.1,135.7,97.9z M108.9,88.4h13.4c-0.8-3.2-3-4.8-6.5-4.8C112.4,83.6,110.1,85.2,108.9,88.4z"/>
	<path d="M166.6,92.4l14.6,20.5h-16.4l-6.4-9l-6.4,9h-16.4l14.6-20.5l-14-19.5h16.4l5.8,8.1l5.8-8.1h16.4L166.6,92.4z"/>
	<path d="M210.7,72.8v14.1h-8.4v8.6c0,1.3,0.3,2.3,1,3c0.7,0.7,1.6,1,2.9,1.1c1.2,0.1,2.8,0.1,4.6,0v13.3
		c-8.3,1.2-14.2,0.5-17.8-2.1c-3.5-2.5-5.3-7.4-5.3-14.4v-9.5H182V72.8h5.6V66l14.8-4.4v11.2C202.4,72.8,210.7,72.8,210.7,72.8z"/>
	<path d="M84.4,173.9c-6.2,0-11.2-2-15.3-6c-4-4-6.1-9.1-6.1-15.1c0-6,2.1-11,6.1-15.1c4-4,9.1-6.1,15.3-6.1c3.9,0,7.6,1,10.9,2.9
		c3.3,1.9,5.8,4.4,7.6,7.6l-12.5,7.2c-1.3-2.2-3.3-3.4-5.9-3.4c-1.9,0-3.5,0.7-4.7,2c-1.2,1.3-1.9,3-1.9,4.9c0,2,0.7,3.6,1.9,4.9
		c1.2,1.3,2.8,2,4.7,2c2.8,0,4.8-1.2,5.9-3.5l12.5,7.2c-1.7,3.3-4.3,5.8-7.6,7.6C92,173,88.3,173.9,84.4,173.9z"/>
	<path d="M125.4,173.9c-6,0-11.1-2.1-15.3-6.1c-4.2-4-6.3-9-6.3-15.1c0-6,2.1-11,6.3-15.1c4.1-4,9.2-6.1,15.3-6.1s11.2,2.1,15.3,6.1
		c4.2,4.1,6.3,9.1,6.3,15.1c0,6-2.1,11-6.3,15.1C136.5,171.9,131.4,173.9,125.4,173.9z M120.4,158c1.3,1.3,2.9,1.9,4.9,1.9
		c2,0,3.5-0.7,4.8-1.9c1.3-1.4,1.9-3.1,1.9-5.1c0-2.1-0.7-3.8-1.9-5c-1.2-1.3-2.8-2-4.8-2c-2,0-3.6,0.7-4.9,2c-1.2,1.3-1.8,3-1.8,5
		C118.6,154.8,119.2,156.6,120.4,158z"/>
	<path d="M176.3,153.4v-20.6h14.8v40h-14.8v-3.9c-2.5,3.4-6,5-10.7,5c-4.4,0-8-1.6-10.6-4.6c-2.6-3-3.9-7.6-3.9-13.3v-23.1h14.8
		v21.5c0,3.5,1.6,5.3,4.9,5.3c1.7,0,3.1-0.6,4-1.6C175.8,156.9,176.3,155.4,176.3,153.4z"/>
	<path d="M223,131.7c4.4,0,8,1.6,10.6,4.6c2.5,3.1,3.9,7.6,3.9,13.3v23.1h-14.8v-21.5c0-3.5-1.6-5.3-4.9-5.3c-1.7,0-3.1,0.6-4,1.6
		c-0.9,1.2-1.4,2.6-1.4,4.6v20.6h-14.8v-40h14.8v3.9C214.8,133.4,218.4,131.7,223,131.7z"/>
	<path d="M91.1,192.8v14.1h-8.4v8.6c0,1.3,0.3,2.3,1,3c0.7,0.7,1.6,1,2.9,1.1c1.2,0.1,2.8,0.1,4.6,0v13.2
		c-8.3,1.2-14.2,0.5-17.8-2.1c-3.5-2.5-5.3-7.4-5.3-14.4v-9.5h-5.6v-14.1H68v-6.8l14.8-4.4v11.2L91.1,192.8L91.1,192.8z"/>
	<path d="M135.7,217.8h-26.6c1.3,2.6,4,4,8.1,4c2.4,0,4.7-0.8,6.8-2.5l9.7,8.1c-4,4.4-9.6,6.5-16.9,6.5c-6.7,0-12.3-2-16.5-5.9
		c-4.1-4-6.2-9-6.2-15.1c0-6.1,2-11.1,6-15.2c4-4,9.1-6.1,15.3-6.1c6.1,0,11.1,2,15,6c3.9,3.9,5.9,9,5.9,15
		C136.4,214.3,136.1,216,135.7,217.8z M108.9,208.4h13.4c-0.8-3.2-3-4.8-6.5-4.8C112.4,203.5,110.1,205.2,108.9,208.4z"/>
	<path d="M155.5,192.8v7.7c0.7-2.6,2.2-4.8,4.4-6.3c2.1-1.5,4.7-2.3,7.6-2.3v16c-3.2-0.4-6,0.2-8.4,1.9c-2.4,1.7-3.6,4.4-3.6,8v14.9
		h-14.8v-40L155.5,192.8L155.5,192.8L155.5,192.8z"/>
</g>
<rect x="182.4" y="183.5" width="4.1" height="53.9"/>
<rect x="175.9" y="183.5" width="17.1" height="4.1"/>
<rect x="175.9" y="233.6" width="17.1" height="4.1"/>
</svg>
